<?xml version="1.0" encoding="utf-8"?>
<!-- Generator: $$$/GeneralStr/196=Adobe Illustrator 27.6.0, SVG Export Plug-In . SVG Version: 6.00 Build 0)  -->
<svg version="1.1" id="Calque_1" xmlns="http://www.w3.org/2000/svg" xmlns:xlink="http://www.w3.org/1999/xlink" x="0px" y="0px"
	 viewBox="0 0 41.5 55.9" style="enable-background:new 0 0 41.5 55.9;" xml:space="preserve">
<style type="text/css">
	.st0{fill:#FFFFFF;}
</style>
<g id="Groupe_7_00000086683689642991638960000000975694847330946705_" transform="translate(-1804 -73)">
	<path id="Rectangle_4_00000173880330555337769840000010039855510477787067_" class="st0" d="M1809.1,74l35.4,35.4
		c1.2,1.2,1.2,3.1,0,4.2l0,0c-1.2,1.2-3.1,1.2-4.2,0l-35.4-35.4c-1.2-1.2-1.2-3.1,0-4.2l0,0C1806.1,72.8,1807.9,72.8,1809.1,74z"/>
	<path id="Rectangle_5_00000002342249790089870840000007036155207104147366_" class="st0" d="M1804.9,109.4l35.4-35.4
		c1.2-1.2,3.1-1.2,4.2,0l0,0c1.2,1.2,1.2,3.1,0,4.2l-35.4,35.4c-1.2,1.2-3.1,1.2-4.2,0l0,0C1803.7,112.4,1803.7,110.5,1804.9,109.4z
		"/>
	<path id="Rectangle_6_00000176723412092715625470000001014373666592172673_" class="st0" d="M1808.8,122.9h33c1.7,0,3,1.3,3,3l0,0
		c0,1.7-1.3,3-3,3h-33c-1.7,0-3-1.3-3-3l0,0C1805.8,124.2,1807.1,122.9,1808.8,122.9z"/>
</g>
</svg>
