<?xml version="1.0" encoding="utf-8"?>
<!-- Generator: $$$/GeneralStr/196=Adobe Illustrator 27.6.0, SVG Export Plug-In . SVG Version: 6.00 Build 0)  -->
<svg version="1.1" id="Calque_1" xmlns="http://www.w3.org/2000/svg" xmlns:xlink="http://www.w3.org/1999/xlink" x="0px" y="0px"
	 viewBox="0 0 36.1 36.1" style="enable-background:new 0 0 36.1 36.1;" xml:space="preserve">
<style type="text/css">
	.st0{clip-path:url(#SVGID_00000145753147210318931940000007165654455970749878_);}
	.st1{fill:#183680;}
</style>
<g id="Groupe_11" transform="translate(0 -0.153)">
	<g>
		<defs>
			<rect id="SVGID_1_" y="0.3" width="36" height="36"/>
		</defs>
		<clipPath id="SVGID_00000026858433006724519380000001704521756459390607_">
			<use xlink:href="#SVGID_1_"  style="overflow:visible;"/>
		</clipPath>
		
			<g id="Groupe_10" transform="translate(0 0.153)" style="clip-path:url(#SVGID_00000026858433006724519380000001704521756459390607_);">
			<path id="Tracé_4" class="st1" d="M18.1,3.3c4.8,0,5.4,0,7.3,0.1c1.1,0,2.3,0.2,3.4,0.6c0.8,0.3,1.5,0.8,2.1,1.4
				c0.6,0.6,1.1,1.3,1.4,2.1c0.4,1.1,0.6,2.2,0.6,3.4c0.1,1.9,0.1,2.5,0.1,7.3s0,5.4-0.1,7.3c0,1.1-0.2,2.3-0.6,3.4
				c-0.6,1.6-1.9,2.8-3.4,3.4c-1.1,0.4-2.2,0.6-3.4,0.6c-1.9,0.1-2.5,0.1-7.3,0.1s-5.4,0-7.3-0.1c-1.1,0-2.3-0.2-3.4-0.6
				c-0.8-0.3-1.5-0.8-2.1-1.4c-0.6-0.6-1.1-1.3-1.4-2.1c-0.4-1.1-0.6-2.2-0.6-3.4c-0.1-1.9-0.1-2.5-0.1-7.3s0-5.4,0.1-7.3
				c0-1.1,0.2-2.3,0.6-3.4c0.3-0.8,0.8-1.5,1.3-2.1C5.9,4.7,6.6,4.3,7.4,4c1.1-0.4,2.2-0.6,3.4-0.6C12.7,3.3,13.2,3.3,18.1,3.3
				 M18.1,0c-4.9,0-5.5,0-7.4,0.1c-1.5,0-3,0.3-4.4,0.8C5,1.4,3.9,2.1,3,3C2.1,3.9,1.4,5,0.9,6.2c-0.5,1.4-0.8,2.9-0.8,4.4
				C0,12.5,0,13.2,0,18.1s0,5.5,0.1,7.4c0,1.5,0.3,3,0.8,4.4c0.5,1.2,1.2,2.3,2.1,3.2c0.9,0.9,2,1.6,3.2,2.1
				c1.4,0.5,2.9,0.8,4.4,0.8c1.9,0.1,2.5,0.1,7.4,0.1s5.5,0,7.4-0.1c1.5,0,3-0.3,4.4-0.8c2.4-0.9,4.3-2.9,5.3-5.3
				c0.5-1.4,0.8-2.9,0.8-4.4c0.1-1.9,0.1-2.5,0.1-7.4s0-5.5-0.1-7.4c0-1.5-0.3-3-0.8-4.4C34.7,5,34,3.9,33.1,3
				c-0.9-0.9-2-1.6-3.2-2.1c-1.4-0.5-2.9-0.8-4.4-0.8C23.6,0,23,0,18.1,0 M18.1,8.8c-5.1,0-9.3,4.2-9.3,9.3s4.2,9.3,9.3,9.3
				s9.3-4.2,9.3-9.3S23.2,8.8,18.1,8.8 M18.1,24.1c-3.3,0-6-2.7-6-6s2.7-6,6-6s6,2.7,6,6C24.1,21.4,21.4,24.1,18.1,24.1 M29.9,8.4
				c0,1.2-1,2.2-2.2,2.2c-1.2,0-2.2-1-2.2-2.2c0-1.2,1-2.2,2.2-2.2C28.9,6.3,29.9,7.2,29.9,8.4C29.9,8.4,29.9,8.4,29.9,8.4"/>
		</g>
	</g>
</g>
</svg>
