<?xml version="1.0" encoding="utf-8"?>
<!-- Generator: $$$/GeneralStr/196=Adobe Illustrator 27.6.0, SVG Export Plug-In . SVG Version: 6.00 Build 0)  -->
<svg version="1.1" id="Calque_1" xmlns="http://www.w3.org/2000/svg" xmlns:xlink="http://www.w3.org/1999/xlink" x="0px" y="0px"
	 viewBox="0 0 56.4 34" style="enable-background:new 0 0 56.4 34;" xml:space="preserve">
<style type="text/css">
	.st0{fill:#183680;}
</style>
<g id="Groupe_7" transform="translate(-1798 -78)">
	<path id="Rectangle_4" class="st0" d="M1801.2,78h50c1.7,0,3,1.3,3,3l0,0c0,1.7-1.3,3-3,3h-50c-1.7,0-3-1.3-3-3l0,0
		C1798.2,79.3,1799.5,78,1801.2,78z"/>
	<path id="Rectangle_5" class="st0" d="M1801.2,92h50c1.7,0,3,1.3,3,3l0,0c0,1.7-1.3,3-3,3h-50c-1.7,0-3-1.3-3-3l0,0
		C1798.2,93.3,1799.5,92,1801.2,92z"/>
	<path id="Rectangle_6" class="st0" d="M1818.2,106h33c1.7,0,3,1.3,3,3l0,0c0,1.7-1.3,3-3,3h-33c-1.7,0-3-1.3-3-3l0,0
		C1815.2,107.3,1816.5,106,1818.2,106z"/>
</g>
</svg>
